***************************************************************

[IMG]http://www.torrentforce.org/imghost/3/greyshadow_tfbanner.png[/IMG]

***************************************************************

[IMG]http://www.torrentforce.org/imghost/4/greyshadow_attacktheblock.jpg[/IMG]

***************************************************************

FILM TITLE: Attack the Block (2011)

***************************************************************

Genre: Action | Comedy | Sci-Fi   

Rated R for creature violence, drug content and pervasive language

Release: 13 May 2011 (UK)

Director: Joe Cornish

Writer: Joe Cornish

Stars: John Boyega, Jodie Whittaker and Alex Esmail

Country: UK | France

Language: English

Plot:
A teen gang in South London defend their block from an alien invasion.

IMDB Rating: 6.8/10 from 13,592 users   Metascore: 75/100
 
http://www.imdb.com/title/tt1478964/ 

****************************************************************

[IMG]http://www.torrentforce.org/imghost/4/greyshadow_attacktheblockx2641.png[/IMG]
[IMG]http://www.torrentforce.org/imghost/4/greyshadow_attacktheblockx2642.png[/IMG]
[IMG]http://www.torrentforce.org/imghost/4/greyshadow_attacktheblockx2643.png[/IMG]
[IMG]http://www.torrentforce.org/imghost/4/greyshadow_attacktheblockx2644.png[/IMG]

****************************************************************

[IMG]http://www.torrentforce.org/imghost/2/greyshadow_mediainfo.png[/IMG]
General
Complete name                    : Attack The Block 2011 720p BDRip x264 aac (mp4) [TFRG].mp4
Format                           : MPEG-4
Format profile                   : Base Media
Codec ID                         : isom
File size                        : 2.41 GiB
Duration                         : 1h 27mn
Overall bit rate                 : 3925 Kbps
Encoded date                     : UTC 2011-10-14 17:22:13
Tagged date                      : UTC 2011-10-14 17:22:13

Video
ID                               : 1
Format                           : AVC
Format/Info                      : Advanced Video Codec
Format profile                   : High@L4.1
Format settings, CABAC           : Yes
Format settings, ReFrames        : 12 frames
Codec ID                         : avc1
Codec ID/Info                    : Advanced Video Coding
Duration                         : 1h 27mn
Bit rate                         : 3200 Kbps
Maximum bit rate                 : 13.1 Mbps
Width                            : 1280 pixels
Height                           : 528 pixels
Display aspect ratio             : 2.40:1
Frame rate mode                  : Constant
Frame rate                       : 24.000 fps
Color space                      : YUV
Chroma subsampling               : 4:2:0
Bit depth                        : 8 bits
Scan type                        : Progressive
Bits/(Pixel*Frame)               : 0.197
Stream size                      : 1.96 GiB (81%)
Title                            : Attack Tha Block AVC MPEG4 Video
Writing library                  : x264 core 118 r2085 8a62835
Encoded date                     : UTC 2011-10-14 02:57:12
Tagged date                      : UTC 2011-10-14 17:22:57
Color primaries                  : BT.709-5, BT.1361, IEC 61966-2-4, SMPTE RP177
Transfer characteristics         : BT.709-5, BT.1361
Matrix coefficients              : BT.709-5, BT.1361, IEC 61966-2-4 709, SMPTE RP177

Audio
ID                               : 2
Format                           : AAC
Format/Info                      : Advanced Audio Codec
Format profile                   : LC
Codec ID                         : 40
Duration                         : 1h 27mn
Bit rate mode                    : Variable
Bit rate                         : 724 Kbps
Maximum bit rate                 : 867 Kbps
Channel(s)                       : 6 channels
Channel positions                : Front: L C R, Side: L R, LFE
Sampling rate                    : 48.0 KHz
Compression mode                 : Lossy
Stream size                      : 454 MiB (18%)
Title                            : Attack The Block AAC 5.1 Audio
Language                         : English
Encoded date                     : UTC 2011-10-14 17:22:49
Tagged date                      : UTC 2011-10-14 17:22:57

****************************************************************

Video Source: Attack The Block 2011 BluRay 1080p AVC DTS-HD MA5.1-CHDBits (21.6GB)

Thanks: (chdbits.org)

****************************************************************

I provide a small sample, so please download this to check your 
compatibility first if you are unsure.

****************************************************************

7th October 2011

I am re-introducing my warning to all downloaders, please please
please use a proxy or vpn service, it is the only secure way to
keep your own ip address from being seen during downloading or
uploading/seeding, this WILL stop isp letters, as for advice to 
which one then thats simple, vpntunnel.se server based in Sweden 
is the right one to use, I have cancelled my vpn and transfered 
to a Swedish one already !!! enough said. 

****************************************************************

A big thanks to all the sites out there who care and share and
who make it possible for you to download this torrent for free.

Greetz to Westy, Ripwyn, mustang, noir, Blackjesus, MXMG, The Stig 
and all the other outstanding members of our community of file 
sharers and a special mention to our friends at 1337x.

****************************************************************